# xmcd
#
# Track frame offsets: 
#        150
#        21593
#        44634
#        65338
#        85231
#        100813
#        125308
#        149040
#        168187
#
# Disc length: 2697 seconds
#
# Revision: 0
# Processed by: cddbd v1.5.2PL0 Copyright (c) Steve Scherf et al.
# Submitted via: ExactAudioCopy v0.99pb5
#
DISCID=7e0a8709
DTITLE=Andy Chung - Songs for the Glass Queen
DYEAR=2002
DGENRE=Pop-Folk
TTITLE0=View
TTITLE1=Assembling Instructions
TTITLE2=Precious Thing
TTITLE3=Girl on the Bridge
TTITLE4=Still Milk
TTITLE5=Two Goldfish
TTITLE6=When Worlds Collide
TTITLE7=Little Revolver
TTITLE8=Secret Senses
EXTD=
EXTT0=
EXTT1=
EXTT2=
EXTT3=
EXTT4=
EXTT5=
EXTT6=
EXTT7=
EXTT8=
PLAYORDER=
